<svg version="1.1" xmlns="https://www.w3.org/2000/svg" viewBox="-313.5 16.5 467.549 139">
<polygon fill="#E44D26" points="42.639,141.605 31.486,16.5 154.049,16.5 142.882,141.586 92.693,155.5 "/>
<polygon fill="#F16529" points="92.768,144.865 133.324,133.62 142.866,26.729 92.768,26.729 "/>
<polygon fill="#EBEBEB" points="92.768,73.129 72.464,73.129 71.062,57.416 92.768,57.416 92.768,42.073 92.714,42.073
	54.292,42.073 54.66,46.189 58.431,88.472 92.768,88.472 "/>
<polygon fill="#EBEBEB" points="92.768,112.978 92.7,112.995 75.612,108.382 74.52,96.145 66.216,96.145 59.116,96.145
	61.267,120.237 92.696,128.962 92.768,128.941 "/>
<path d="M-313.5,44.657h26.164v25.849h23.933V44.657h26.164v78.278h-26.164V96.722h-23.933v26.212h-26.163V44.657H-313.5z"/>
<path d="M-202.833,70.615h-23.033V44.657h72.242v25.958h-23.043v52.32h-26.164v-52.32H-202.833z"/>
<path d="M-142.159,44.657h27.281l16.78,27.505l16.765-27.505h27.293v78.278h-26.055V84.136l-18.003,27.833h-0.449l-18.011-27.833
	v38.799h-25.601V44.657z"/>
<path d="M-41.02,44.657h26.173v52.404h36.792v25.874H-41.02V44.657z"/>
<polygon fill="#FFFFFF" points="92.714,73.129 92.714,88.472 111.608,88.472 109.827,108.372 92.714,112.989 92.714,128.953
	124.17,120.237 124.399,117.645 128.007,77.25 128.381,73.129 124.245,73.129 "/>
<polygon fill="#FFFFFF" points="92.714,42.073 92.714,51.603 92.714,57.379 92.714,57.416 129.728,57.416 129.728,57.416
	129.777,57.416 130.084,53.968 130.783,46.189 131.15,42.073 "/>
</svg>
