<?xml version="1.0" encoding="utf-8"?>
<!-- Generator: Adobe Illustrator 15.0.2, SVG Export Plug-In . SVG Version: 6.00 Build 0)  -->
<!DOCTYPE svg PUBLIC "-//W3C//DTD SVG 1.1//EN" "https://www.w3.org/Graphics/SVG/1.1/DTD/svg11.dtd">
<svg version="1.1" id="Layer_1" xmlns="https://www.w3.org/2000/svg" xmlns:xlink="https://www.w3.org/1999/xlink" x="0px" y="0px"
	 width="142.352px" height="101.07px" viewBox="0 0 142.352 101.07" enable-background="new 0 0 142.352 101.07"
	 xml:space="preserve">
<path fill="none" d="M88.225,70.731c4.351,7.104,10.011,12.325,20.022,12.325c8.41,0,13.782-4.203,13.782-10.012
	c0-6.959-5.52-9.424-14.777-13.474l-5.074-2.177c-14.646-6.24-24.377-14.058-24.377-30.583C77.801,11.588,89.4,0,107.527,0
	c12.904,0,22.183,4.491,28.868,16.252L120.59,26.4c-3.48-6.24-7.234-8.699-13.062-8.699c-5.945,0-9.713,3.771-9.713,8.699
	c0,6.089,3.771,8.554,12.479,12.325l5.074,2.174c17.245,7.396,26.983,14.935,26.983,31.886c0,18.274-14.355,28.285-33.635,28.285
	c-18.851,0-31.029-8.982-36.987-20.756L88.225,70.731z M16.522,72.49c3.188,5.657,6.089,10.439,13.063,10.439
	c6.668,0,10.875-2.608,10.875-12.754V1.159h20.297V70.45c0,21.017-12.322,30.583-30.309,30.583c-16.251,0-25.663-8.41-30.449-18.54
	L16.522,72.49z"/>
</svg>
