<svg version="1.1" xmlns="https://www.w3.org/2000/svg" viewBox="0 0 209.645 100.097">
	<path d="M41.97,33.501c6.544,0,10.906,1.208,13.086,3.624
		c2.179,2.416,2.698,6.563,1.558,12.439c-1.191,6.12-3.484,10.489-6.884,13.106c-3.399,2.617-8.572,3.924-15.517,3.924H23.736
		l6.432-33.094H41.97L41.97,33.501z M0,100.097h17.225l4.086-21.023h14.755c6.51,0,11.866-0.682,16.07-2.051
		c4.205-1.367,8.026-3.66,11.465-6.88c2.887-2.652,5.222-5.579,7.011-8.78c1.787-3.197,3.056-6.729,3.806-10.589
		c1.822-9.374,0.447-16.675-4.122-21.905c-4.569-5.23-11.838-7.846-21.803-7.846H15.369L0,100.097"/>
	<path d="M87.069,0h17.09l-4.086,21.023h15.225
		c9.58,0,16.188,1.672,19.824,5.012c3.637,3.342,4.727,8.757,3.271,16.243l-7.15,36.796h-17.361l6.799-34.986
		c0.773-3.98,0.49-6.695-0.854-8.143s-4.203-2.172-8.574-2.172H97.594L88.79,79.074H71.7L87.069,0"/>
	<path d="M176.418,33.501c6.544,0,10.905,1.208,13.086,3.624
		c2.18,2.416,2.698,6.563,1.559,12.439c-1.191,6.12-3.484,10.489-6.885,13.106c-3.398,2.617-8.572,3.924-15.516,3.924h-10.479
		l6.432-33.094H176.418L176.418,33.501z M134.448,100.097h17.227l4.086-21.023h14.754c6.51,0,11.865-0.682,16.07-2.051
		c4.205-1.367,8.025-3.66,11.465-6.88c2.887-2.652,5.223-5.579,7.011-8.78c1.786-3.197,3.056-6.729,3.806-10.589
		c1.823-9.374,0.448-16.675-4.121-21.905c-4.569-5.23-11.838-7.846-21.804-7.846h-33.124L134.448,100.097"/>
</svg>
