<svg class="inline-block " width="157" height="30" viewBox="0 0 157 30" fill="none" xmlns="http://www.w3.org/2000/svg"><path fill="#1D4AFF" d="M0 23.468C0 22.5771 1.07706 22.1309 1.70703 22.7609L6.29004 27.344C6.92 27.974 6.47391 29.051 5.58301 29.051H1C0.447715 29.051 0 28.6033 0 28.051V23.468ZM0 13.4709C4.9194e-05 12.5801 1.07707 12.1339 1.70703 12.7639L9.99707 21.0539V29.051L0.292969 19.3469C0.105529 19.1593 0 18.905 0 18.6399V13.4709ZM0 3.47384C3.86254e-05 2.58298 1.07707 2.13689 1.70703 2.76681L9.99707 11.0568V19.0539L0.292969 9.34982C0.105519 9.1623 0 8.90793 0 8.64278V3.47384Z"></path><path fill="#F9BD2B" d="M26.2852 27.344C26.915 27.974 26.468 29.051 25.5771 29.051H19.9961L19.9932 21.053L26.2852 27.344ZM29.6982 20.761C29.8857 20.9485 29.9912 21.2029 29.9912 21.468V26.637C29.9912 27.5278 28.9142 27.974 28.2842 27.344L19.9941 19.0539V11.0569L29.6982 20.761ZM19.9941 3.47386C19.9942 2.58298 21.0712 2.13688 21.7012 2.76683L29.6982 10.7639C29.8857 10.9514 29.9912 11.2058 29.9912 11.4709V16.6399C29.9912 17.5308 28.9142 17.9769 28.2842 17.3469L20.2871 9.34984C20.0997 9.16232 19.9941 8.90796 19.9941 8.64281V3.47386Z"></path><path fill="#F54E00" d="M16.2871 27.344C16.9171 27.974 16.471 29.051 15.5801 29.051H9.99707V21.0539L16.2871 27.344ZM19.7012 20.761L19.9941 21.0598V29.051L10.29 19.3469C10.1027 19.1593 9.99707 18.905 9.99707 18.6399V11.0569L19.7012 20.761ZM9.99707 3.47385C9.99711 2.58299 11.0742 2.13688 11.7041 2.76682L19.7012 10.7639L19.9941 11.0598V19.0539L10.29 9.34982C10.1026 9.16231 9.99707 8.90794 9.99707 8.64279V3.47385Z"></path><path fill="#000" d="M42.5248 23.5308L33.1121 14.118C32.4821 13.488 31.405 13.9342 31.405 14.8251V27.9915C31.405 28.5438 31.8527 28.9915 32.405 28.9915H46.9856C47.5379 28.9915 47.9856 28.5438 47.9856 27.9915V26.7925C47.9856 26.2402 47.536 25.7992 46.9883 25.7279C45.3076 25.509 43.7355 24.7414 42.5248 23.5308ZM36.2035 25.7925C35.3206 25.7925 34.604 25.0759 34.604 24.193C34.604 23.31 35.3206 22.5934 36.2035 22.5934C37.0865 22.5934 37.8031 23.31 37.8031 24.193C37.8031 25.0759 37.0865 25.7925 36.2035 25.7925Z"></path><path fill="#000" d="M59.6496 25H63.7576V18.188H67.1896C70.9596 18.188 73.3776 15.9521 73.3776 12.494C73.3776 9.03605 70.9596 6.80005 67.1896 6.80005H59.6496V25ZM63.7576 14.678V10.3101H66.7736C68.3336 10.3101 69.2696 11.142 69.2696 12.494C69.2696 13.8461 68.3336 14.678 66.7736 14.678H63.7576Z"></path><path fill="#000" d="M80.8095 25.208C84.8135 25.208 87.7255 22.348 87.7255 18.448C87.7255 14.548 84.8135 11.688 80.8095 11.688C76.7535 11.688 73.8935 14.548 73.8935 18.448C73.8935 22.348 76.7535 25.208 80.8095 25.208ZM77.6895 18.448C77.6895 16.368 78.9375 14.938 80.8095 14.938C82.6555 14.938 83.9035 16.368 83.9035 18.448C83.9035 20.528 82.6555 21.958 80.8095 21.958C78.9375 21.958 77.6895 20.528 77.6895 18.448Z"></path><path fill="#000" d="M94.2995 25.208C97.3675 25.208 99.4475 23.284 99.4475 21.022C99.4475 15.718 92.4015 17.434 92.4015 15.354C92.4015 14.7821 92.9995 14.4181 93.8575 14.4181C94.7415 14.4181 95.8075 14.964 96.1455 16.16L99.2135 14.886C98.6155 12.988 96.4055 11.688 93.7275 11.688C90.8415 11.688 89.0475 13.404 89.0475 15.458C89.0475 20.424 95.9895 19.046 95.9895 21.1C95.9895 21.828 95.3135 22.3221 94.2995 22.3221C92.8435 22.3221 91.8295 21.3081 91.5175 20.0861L88.4495 21.282C89.1255 23.258 91.1015 25.208 94.2995 25.208Z"></path><path fill="#000" d="M109.33 24.8701L109.07 21.5681C108.628 21.8021 108.056 21.88 107.588 21.88C106.652 21.88 106.028 21.2041 106.028 20.034V15.068H109.2V11.896H106.028V8.10005H102.206V11.896H100.126V15.068H102.206V20.528C102.206 23.7001 104.364 25.208 107.198 25.208C107.978 25.208 108.706 25.0781 109.33 24.8701Z"></path><path fill="#000" d="M122.656 6.80005V13.872H115.428V6.80005H111.32V25H115.428V17.382H122.656V25H126.79V6.80005H122.656Z"></path><path fill="#000" d="M135.908 25.208C139.912 25.208 142.824 22.348 142.824 18.448C142.824 14.548 139.912 11.688 135.908 11.688C131.852 11.688 128.992 14.548 128.992 18.448C128.992 22.348 131.852 25.208 135.908 25.208ZM132.788 18.448C132.788 16.368 134.036 14.938 135.908 14.938C137.754 14.938 139.002 16.368 139.002 18.448C139.002 20.528 137.754 21.958 135.908 21.958C134.036 21.958 132.788 20.528 132.788 18.448Z"></path><path fill="#000" d="M150.201 24.584C151.631 24.584 152.905 24.09 153.581 23.232V24.48C153.581 25.936 152.411 26.9501 150.617 26.9501C149.343 26.9501 148.225 26.326 148.043 25.26L144.559 25.806C145.027 28.276 147.549 29.9401 150.617 29.9401C154.647 29.9401 157.325 27.574 157.325 24.064V11.896H153.555V13.014C152.853 12.208 151.657 11.688 150.123 11.688C146.483 11.688 144.195 14.184 144.195 18.136C144.195 22.088 146.483 24.584 150.201 24.584ZM147.913 18.136C147.913 16.186 149.057 14.938 150.825 14.938C152.619 14.938 153.763 16.186 153.763 18.136C153.763 20.086 152.619 21.334 150.825 21.334C149.057 21.334 147.913 20.086 147.913 18.136Z"></path></svg>