<svg version="1.1" xmlns="https://www.w3.org/2000/svg" viewBox="0 27.04 216 161.892">
<path d="M185.875,120.105c-7.531,0.039-14.076,1.854-19.557,4.533c-2.012-3.981-4.022-7.531-4.377-10.134
	c-0.396-3.036-0.868-4.889-0.396-8.517c0.474-3.628,2.603-8.793,2.562-9.188c-0.039-0.395-0.473-2.248-4.811-2.287
	c-4.338-0.039-8.083,0.828-8.518,1.972c-0.434,1.144-1.262,3.746-1.812,6.427c-0.75,3.943-8.676,18.02-13.21,25.393
	c-1.458-2.879-2.721-5.402-2.997-7.412c-0.394-3.037-0.867-4.891-0.394-8.518c0.474-3.628,2.603-8.793,2.563-9.188
	c-0.041-0.395-0.475-2.248-4.812-2.287c-4.339-0.039-8.084,0.828-8.519,1.972c-0.434,1.144-0.906,3.825-1.813,6.427
	c-0.906,2.604-11.434,26.104-14.194,32.176c-1.419,3.115-2.642,5.601-3.509,7.295c0,0-0.04,0.117-0.158,0.314
	c-0.749,1.459-1.183,2.248-1.183,2.248s0,0,0,0.039c-0.591,1.064-1.222,2.051-1.538,2.051c-0.237,0-0.67-2.839,0.079-6.703
	c1.578-8.162,5.323-20.859,5.284-21.293c0-0.236,0.71-2.443-2.444-3.588c-3.076-1.143-4.18,0.75-4.456,0.75s-0.474,0.67-0.474,0.67
	s3.431-14.273-6.545-14.273c-6.23,0-14.826,6.82-19.084,12.974c-2.682,1.459-8.399,4.573-14.511,7.925
	c-2.326,1.303-4.731,2.604-6.979,3.825c-0.158-0.158-0.315-0.354-0.473-0.513c-12.066-12.895-34.383-22.004-33.437-39.312
	c0.355-6.309,2.523-22.87,42.861-42.979c33.201-16.364,59.62-11.829,64.193-1.774c6.546,14.353-14.155,41.008-48.46,44.872
	c-13.091,1.459-19.952-3.588-21.687-5.48c-1.813-1.972-2.09-2.09-2.76-1.696c-1.104,0.592-0.395,2.366,0,3.391
	c1.025,2.681,5.244,7.413,12.381,9.739c6.309,2.051,21.647,3.194,40.219-3.982c20.78-8.044,37.024-30.401,32.254-49.13
	C130.395,27.839,98.849,21.569,69,32.176C51.26,38.484,32.018,48.42,18.177,61.354C1.735,76.731-0.868,90.099,0.197,95.698
	c3.825,19.872,31.229,32.806,42.19,42.388c-0.552,0.314-1.064,0.591-1.499,0.828c-5.48,2.721-26.379,13.643-31.583,25.195
	c-5.915,13.091,0.946,22.476,5.481,23.736c14.077,3.903,28.547-3.115,36.315-14.707c7.768-11.593,6.821-26.654,3.233-33.556
	c-0.039-0.079-0.079-0.158-0.158-0.235c1.42-0.828,2.878-1.695,4.298-2.523c2.799-1.656,5.56-3.194,7.925-4.456
	c-1.341,3.667-2.326,8.044-2.799,14.353c-0.592,7.413,2.444,17.034,6.427,20.819c1.774,1.656,3.864,1.694,5.205,1.694
	c4.653,0,6.743-3.863,9.069-8.438c2.839-5.599,5.402-12.104,5.402-12.104s-3.194,17.586,5.481,17.586
	c3.154,0,6.348-4.102,7.768-6.19c0,0.039,0,0.039,0,0.039s0.079-0.118,0.236-0.396c0.315-0.512,0.513-0.827,0.513-0.827
	s0-0.039,0-0.078c1.262-2.209,4.101-7.218,8.318-15.536c5.441-10.727,10.687-24.132,10.687-24.132s0.474,3.272,2.09,8.715
	c0.947,3.192,2.918,6.703,4.496,10.094c-1.263,1.775-2.051,2.761-2.051,2.761s0,0,0.038,0.039c-1.024,1.342-2.129,2.801-3.352,4.221
	c-4.298,5.125-9.424,11-10.133,12.695c-0.828,2.012-0.631,3.471,0.945,4.652c1.145,0.868,3.193,0.984,5.283,0.868
	c3.865-0.276,6.586-1.224,7.926-1.813c2.09-0.75,4.535-1.894,6.822-3.589c4.219-3.114,6.78-7.569,6.545-13.444
	c-0.118-3.234-1.184-6.467-2.484-9.504c0.395-0.552,0.75-1.104,1.145-1.655c6.664-9.739,11.828-20.425,11.828-20.425
	s0.475,3.271,2.09,8.713c0.789,2.761,2.406,5.758,3.826,8.676c-6.271,5.086-10.135,11.001-11.515,14.865
	c-2.483,7.176-0.552,10.41,3.114,11.158c1.656,0.354,4.022-0.435,5.758-1.184c2.208-0.71,4.811-1.934,7.295-3.745
	c4.219-3.114,8.279-7.452,8.043-13.327c-0.117-2.683-0.828-5.324-1.812-7.888c5.322-2.207,12.185-3.431,20.938-2.403
	c18.77,2.207,22.477,13.918,21.766,18.848c-0.709,4.929-4.652,7.609-5.953,8.438c-1.301,0.829-1.734,1.104-1.617,1.695
	c0.158,0.867,0.789,0.828,1.894,0.671c1.538-0.276,9.856-3.981,10.212-13.052C216.434,132.645,205.393,119.986,185.875,120.105z
	 M41.086,168.92c-6.23,6.782-14.905,9.346-18.65,7.176c-4.022-2.326-2.445-12.341,5.205-19.518
	c4.653-4.377,10.646-8.438,14.629-10.922c0.907-0.553,2.248-1.342,3.864-2.326c0.276-0.158,0.434-0.236,0.434-0.236
	c0.315-0.197,0.631-0.395,0.946-0.592C50.313,152.754,47.632,161.783,41.086,168.92z M86.432,138.086
	c-2.169,5.283-6.703,18.809-9.463,18.059c-2.366-0.631-3.825-10.883-0.473-21.017c1.695-5.087,5.284-11.159,7.374-13.524
	c3.391-3.785,7.137-5.047,8.044-3.51C93.056,120.105,87.772,134.773,86.432,138.086z M132.289,144.236
	c0,6.033-5.836,10.094-8.438,11.75c-0.908,0.474-1.775,0.789-2.17,0.553c-0.275-0.158,0.395-0.789,0.395-0.789
	s4.693-5.047,6.546-7.334c1.063-1.34,2.327-2.918,3.667-4.691C132.289,143.882,132.289,144.079,132.289,144.236z M152.715,149.402
	c-0.671-0.475-0.553-2.051,1.695-6.979c0.867-1.933,2.918-5.165,6.427-8.28c0.394,1.262,0.671,2.484,0.631,3.627
	C161.428,145.38,155.986,148.219,152.715,149.402z"/>
</svg>
