<svg version="1.1" xmlns="https://www.w3.org/2000/svg" viewBox="0 0 216 216">
<path d="M29.198,155.746c9.542,14.813,22.075,25.993,37.601,33.542L23.002,69.436c-5.271,11.963-7.905,24.426-7.905,37.387
	C14.954,124.627,19.655,140.935,29.198,155.746z M161.016,76.913c0-0.285-0.499-1.211-1.496-2.777
	c-0.996-1.566-1.566-2.493-1.709-2.778c-0.143-0.285-0.641-1.139-1.496-2.563c-0.854-1.424-1.352-2.35-1.495-2.777
	c-0.142-0.428-0.498-1.211-1.067-2.35c-0.57-1.14-0.926-2.066-1.068-2.778s-0.285-1.567-0.428-2.563
	c-0.143-0.997-0.213-1.994-0.213-2.992c0.142-4.415,1.638-8.189,4.486-11.322c2.848-3.133,6.479-4.7,10.896-4.7h1.282
	c-8.262-7.833-17.732-13.816-28.415-17.946c-10.683-4.13-21.863-6.196-33.542-6.196c-15.667,0-30.266,3.704-43.797,11.11
	c-13.53,7.406-24.426,17.519-32.688,30.337c0.713,0,1.709,0,2.992,0c1.28,0,2.208,0,2.776,0l24.568-1.282
	c1.283,0.143,2.351,0.713,3.205,1.71c0.854,0.997,0.997,2.207,0.428,3.632c-0.57,1.424-1.638,2.207-3.205,2.35
	c-3.276,0.285-6.765,0.57-10.468,0.854l33.327,99.131l20.083-60.035L89.658,63.88l-9.4-0.854c-0.854,0-1.638-0.356-2.35-1.068
	s-1.068-1.354-1.068-1.923c0-0.569,0.071-1.282,0.214-2.136c0.143-0.854,0.569-1.496,1.282-1.923
	c0.712-0.427,1.495-0.642,2.35-0.642c10.112,0.855,18.159,1.282,24.142,1.282l24.354-1.282c1.426,0.143,2.564,0.713,3.419,1.71
	c0.854,0.997,0.997,2.207,0.427,3.632c-0.568,1.424-1.637,2.207-3.203,2.35c-3.277,0.285-6.767,0.57-10.469,0.854l33.113,98.49
	l9.188-30.552c0.427-1.14,1.068-3.418,1.922-6.836c0.855-3.419,1.566-5.769,2.137-7.051c0.57-1.281,1.068-3.062,1.496-5.341
	s0.783-4.201,1.068-5.769c0.285-1.567,0.428-3.133,0.428-4.7C168.707,93.861,166.143,85.458,161.016,76.913z M80.899,194.63
	c8.403,2.563,17.021,3.846,25.851,3.846c10.255,0,20.367-1.709,30.338-5.127c-0.285-0.429-0.428-0.927-0.428-1.496l-28.415-77.125
	L80.899,194.63z M187.721,72.212c0,8.545-2.279,19.512-6.837,32.901l-28.2,80.971c13.957-8.261,25.066-19.371,33.327-33.328
	c8.263-13.958,12.393-29.27,12.393-45.934c0-15.524-3.774-30.195-11.324-44.01C187.508,65.803,187.721,68.937,187.721,72.212z
	 M65.303,8.546c-13.104,5.698-24.497,13.247-34.182,22.646c-9.687,9.4-17.234,20.794-22.646,34.183
	C3.062,78.764,0.214,92.58-0.072,106.822c-0.284,14.243,2.565,28.059,8.547,41.447c5.98,13.388,13.53,24.782,22.645,34.183
	c9.116,9.4,20.511,16.948,34.184,22.646c13.674,5.697,27.489,8.546,41.447,8.546c13.957,0,27.773-2.849,41.446-8.546
	c13.673-5.698,25.068-13.246,34.183-22.646c9.116-9.4,16.664-20.795,22.646-34.183c5.982-13.389,8.83-27.204,8.547-41.447
	c-0.286-14.243-3.134-28.058-8.547-41.446c-5.412-13.389-12.961-24.783-22.646-34.183c-9.684-9.4-21.079-16.949-34.183-22.646
	c-13.103-5.697-26.919-8.545-41.446-8.545S78.406,2.85,65.303,8.546z M67.226,200.612c-12.533-5.412-23.358-12.676-32.475-21.792
	c-9.114-9.116-16.378-19.94-21.791-32.475c-5.412-12.532-8.117-25.707-8.117-39.523c0-13.815,2.705-26.99,8.117-39.523
	c5.413-12.534,12.677-23.358,21.793-32.474c9.114-9.115,19.939-16.379,32.473-21.792C79.76,7.621,92.935,4.915,106.75,4.915
	s26.99,2.707,39.523,8.119c12.534,5.412,23.359,12.676,32.474,21.792c9.116,9.116,16.38,19.94,21.792,32.474
	s8.119,25.708,8.119,39.523c0,13.816-2.707,26.991-8.119,39.523c-5.412,12.534-12.676,23.358-21.792,32.475
	c-9.114,9.116-19.939,16.38-32.474,21.792c-12.533,5.411-25.708,8.118-39.523,8.118S79.76,206.023,67.226,200.612z"/>
</svg>
